# xmcd
#
# Track frame offsets:
# 150
# 17054
# 32360
# 49319
# 62745
# 80062
# 96770
# 118685
# 135434
# 148058
# 165063
# 180123
# 197948
#
# Disc length: 2890 seconds
#
#
# Revision: 4
# Processed by: cddbd v1.5.2PL0 Copyright (c) Steve Scherf et al.
# Submitted via: FreeRIP 2.96 
#
DISCID=a40b480d
DTITLE=Harmonia do Samba - Meu e Seu
DYEAR=2002
DGENRE=Swing
TTITLE0=Batifun
TTITLE1=Deslizando
TTITLE2=Blue Jeans
TTITLE3=Quebre e Sambe
TTITLE4=De Olho Nelas
TTITLE5=Maria do Harmonia
TTITLE6=Coisa de Cinema
TTITLE7=Pirando o Cabecao
TTITLE8=Na Base da Chinela
TTITLE9=Swing do Harmonia
TTITLE10=Reluz
TTITLE11=Pout-Pourri da Gang
TTITLE12=Pra Comecar
EXTD=
EXTT0=
EXTT1=
EXTT2=
EXTT3=
EXTT4=
EXTT5=
EXTT6=
EXTT7=
EXTT8=
EXTT9=
EXTT10=
EXTT11=
EXTT12=
PLAYORDER=
